<mxfile host="65bd71144e">
    <diagram id="A8eMLSTsR_s33RUXKSIy" name="Page-1">
        <mxGraphModel dx="814" dy="780" grid="0" gridSize="10" guides="1" tooltips="1" connect="1" arrows="1" fold="1" page="1" pageScale="1" pageWidth="827" pageHeight="1169" background="#ffffff" math="0" shadow="0">
            <root>
                <mxCell id="0"/>
                <mxCell id="1" parent="0"/>
                <mxCell id="30" style="edgeStyle=none;html=1;fontSize=18;strokeColor=#000000;strokeWidth=1;fillColor=#60a917;" edge="1" parent="1" source="10" target="12">
                    <mxGeometry relative="1" as="geometry"/>
                </mxCell>
                <mxCell id="31" style="edgeStyle=none;html=1;fontSize=18;strokeColor=#000000;strokeWidth=1;fillColor=#60a917;" edge="1" parent="1" source="10" target="17">
                    <mxGeometry relative="1" as="geometry"/>
                </mxCell>
                <mxCell id="10" value="1" style="ellipse;whiteSpace=wrap;html=1;aspect=fixed;fontSize=18;fillColor=#60a917;fontColor=#ffffff;strokeColor=#2D7600;" vertex="1" parent="1">
                    <mxGeometry x="1154" y="114" width="80" height="80" as="geometry"/>
                </mxCell>
                <mxCell id="11" value="4" style="ellipse;whiteSpace=wrap;html=1;aspect=fixed;fontSize=18;fillColor=#60a917;fontColor=#ffffff;strokeColor=#2D7600;" vertex="1" parent="1">
                    <mxGeometry x="1090" y="400" width="80" height="80" as="geometry"/>
                </mxCell>
                <mxCell id="37" style="edgeStyle=none;html=1;fontSize=18;strokeColor=#000000;strokeWidth=1;fillColor=#60a917;" edge="1" parent="1" source="12" target="13">
                    <mxGeometry relative="1" as="geometry"/>
                </mxCell>
                <mxCell id="38" style="edgeStyle=none;html=1;fontSize=18;strokeColor=#000000;strokeWidth=1;fillColor=#60a917;" edge="1" parent="1" source="12" target="14">
                    <mxGeometry relative="1" as="geometry"/>
                </mxCell>
                <mxCell id="12" value="5" style="ellipse;whiteSpace=wrap;html=1;aspect=fixed;fontSize=18;fillColor=#60a917;fontColor=#ffffff;strokeColor=#2D7600;" vertex="1" parent="1">
                    <mxGeometry x="1252" y="250" width="80" height="80" as="geometry"/>
                </mxCell>
                <mxCell id="40" style="edgeStyle=none;html=1;fontSize=18;strokeColor=#000000;strokeWidth=1;fillColor=#60a917;" edge="1" parent="1" source="13" target="25">
                    <mxGeometry relative="1" as="geometry"/>
                </mxCell>
                <mxCell id="13" value="6" style="ellipse;whiteSpace=wrap;html=1;aspect=fixed;fontSize=18;fillColor=#60a917;fontColor=#ffffff;strokeColor=#2D7600;" vertex="1" parent="1">
                    <mxGeometry x="1240.5" y="400" width="80" height="80" as="geometry"/>
                </mxCell>
                <mxCell id="39" style="edgeStyle=none;html=1;fontSize=18;strokeColor=#000000;strokeWidth=1;fillColor=#60a917;" edge="1" parent="1" source="14" target="15">
                    <mxGeometry relative="1" as="geometry"/>
                </mxCell>
                <mxCell id="14" value="7" style="ellipse;whiteSpace=wrap;html=1;aspect=fixed;fontSize=18;fillColor=#60a917;fontColor=#ffffff;strokeColor=#2D7600;" vertex="1" parent="1">
                    <mxGeometry x="1392" y="400" width="80" height="80" as="geometry"/>
                </mxCell>
                <mxCell id="15" value="8" style="ellipse;whiteSpace=wrap;html=1;aspect=fixed;fontSize=18;fillColor=#60a917;fontColor=#ffffff;strokeColor=#2D7600;" vertex="1" parent="1">
                    <mxGeometry x="1470" y="545" width="80" height="80" as="geometry"/>
                </mxCell>
                <mxCell id="34" style="edgeStyle=none;html=1;fontSize=18;strokeColor=#000000;strokeWidth=1;fillColor=#60a917;" edge="1" parent="1" source="16" target="28">
                    <mxGeometry relative="1" as="geometry"/>
                </mxCell>
                <mxCell id="16" value="3" style="ellipse;whiteSpace=wrap;html=1;aspect=fixed;fontSize=18;fillColor=#60a917;fontColor=#ffffff;strokeColor=#2D7600;" vertex="1" parent="1">
                    <mxGeometry x="940" y="400" width="80" height="80" as="geometry"/>
                </mxCell>
                <mxCell id="32" style="edgeStyle=none;html=1;fontSize=18;strokeColor=#000000;strokeWidth=1;fillColor=#60a917;" edge="1" parent="1" source="17" target="11">
                    <mxGeometry relative="1" as="geometry"/>
                </mxCell>
                <mxCell id="33" style="edgeStyle=none;html=1;fontSize=18;strokeColor=#000000;strokeWidth=1;fillColor=#60a917;" edge="1" parent="1" source="17" target="16">
                    <mxGeometry relative="1" as="geometry"/>
                </mxCell>
                <mxCell id="17" value="2" style="ellipse;whiteSpace=wrap;html=1;aspect=fixed;fontSize=18;fillColor=#60a917;fontColor=#ffffff;strokeColor=#2D7600;" vertex="1" parent="1">
                    <mxGeometry x="1047" y="250" width="80" height="80" as="geometry"/>
                </mxCell>
                <mxCell id="25" value="8" style="ellipse;whiteSpace=wrap;html=1;aspect=fixed;fontSize=18;fillColor=#60a917;fontColor=#ffffff;strokeColor=#2D7600;" vertex="1" parent="1">
                    <mxGeometry x="1180" y="545" width="80" height="80" as="geometry"/>
                </mxCell>
                <mxCell id="28" value="8" style="ellipse;whiteSpace=wrap;html=1;aspect=fixed;fontSize=18;fillColor=#60a917;fontColor=#ffffff;strokeColor=#2D7600;" vertex="1" parent="1">
                    <mxGeometry x="890" y="545" width="80" height="80" as="geometry"/>
                </mxCell>
                <mxCell id="57" value="" style="group" vertex="1" connectable="0" parent="1">
                    <mxGeometry x="1740" y="170" width="123" height="114" as="geometry"/>
                </mxCell>
                <mxCell id="43" value="1" style="ellipse;whiteSpace=wrap;html=1;aspect=fixed;fontSize=18;fillColor=#60a917;fontColor=#ffffff;strokeColor=#2D7600;" vertex="1" parent="57">
                    <mxGeometry x="41" width="41" height="41" as="geometry"/>
                </mxCell>
                <mxCell id="46" value="2" style="ellipse;whiteSpace=wrap;html=1;aspect=fixed;fontSize=18;fillColor=#a20025;fontColor=#ffffff;strokeColor=#6F0000;" vertex="1" parent="57">
                    <mxGeometry x="82" y="73" width="41" height="41" as="geometry"/>
                </mxCell>
                <mxCell id="56" style="edgeStyle=none;html=1;entryX=0.5;entryY=0;entryDx=0;entryDy=0;fontSize=18;strokeColor=#000000;strokeWidth=1;" edge="1" parent="57" source="43" target="46">
                    <mxGeometry relative="1" as="geometry"/>
                </mxCell>
                <mxCell id="47" value="3" style="ellipse;whiteSpace=wrap;html=1;aspect=fixed;fontSize=18;fillColor=#a20025;fontColor=#ffffff;strokeColor=#6F0000;" vertex="1" parent="57">
                    <mxGeometry y="73" width="41" height="41" as="geometry"/>
                </mxCell>
                <mxCell id="55" style="edgeStyle=none;html=1;entryX=0.5;entryY=0;entryDx=0;entryDy=0;fontSize=18;strokeColor=#000000;strokeWidth=1;" edge="1" parent="57" source="43" target="47">
                    <mxGeometry relative="1" as="geometry"/>
                </mxCell>
                <mxCell id="58" value="" style="group" vertex="1" connectable="0" parent="1">
                    <mxGeometry x="1908" y="170" width="123" height="114" as="geometry"/>
                </mxCell>
                <mxCell id="130" value="" style="group" vertex="1" connectable="0" parent="58">
                    <mxGeometry x="41" width="82" height="114" as="geometry"/>
                </mxCell>
                <mxCell id="59" value="2" style="ellipse;whiteSpace=wrap;html=1;aspect=fixed;fontSize=18;fillColor=#60a917;fontColor=#ffffff;strokeColor=#2D7600;" vertex="1" parent="130">
                    <mxGeometry width="41" height="41" as="geometry"/>
                </mxCell>
                <mxCell id="60" value="1" style="ellipse;whiteSpace=wrap;html=1;aspect=fixed;fontSize=18;fillColor=#a20025;fontColor=#ffffff;strokeColor=#6F0000;" vertex="1" parent="130">
                    <mxGeometry x="41" y="73" width="41" height="41" as="geometry"/>
                </mxCell>
                <mxCell id="61" style="edgeStyle=none;html=1;entryX=0.5;entryY=0;entryDx=0;entryDy=0;fontSize=18;strokeColor=#000000;strokeWidth=1;" edge="1" parent="130" source="59" target="60">
                    <mxGeometry relative="1" as="geometry"/>
                </mxCell>
                <mxCell id="70" value="" style="group" vertex="1" connectable="0" parent="1">
                    <mxGeometry x="2249" y="158" width="134" height="194" as="geometry"/>
                </mxCell>
                <mxCell id="116" value="&lt;b&gt;&lt;font color=&quot;#000000&quot;&gt;4)&lt;/font&gt;&lt;/b&gt;" style="text;html=1;strokeColor=none;fillColor=none;align=center;verticalAlign=middle;whiteSpace=wrap;rounded=0;fontSize=18;" vertex="1" parent="70">
                    <mxGeometry x="-32" y="-6" width="60" height="30" as="geometry"/>
                </mxCell>
                <mxCell id="147" value="" style="group" vertex="1" connectable="0" parent="70">
                    <mxGeometry x="5.5" y="17" width="123" height="114" as="geometry"/>
                </mxCell>
                <mxCell id="148" value="1" style="ellipse;whiteSpace=wrap;html=1;aspect=fixed;fontSize=18;fillColor=#60a917;fontColor=#ffffff;strokeColor=#2D7600;" vertex="1" parent="147">
                    <mxGeometry x="41" width="41" height="41" as="geometry"/>
                </mxCell>
                <mxCell id="149" value="3" style="ellipse;whiteSpace=wrap;html=1;aspect=fixed;fontSize=18;fillColor=#008a00;fontColor=#ffffff;strokeColor=#005700;" vertex="1" parent="147">
                    <mxGeometry x="82" y="73" width="41" height="41" as="geometry"/>
                </mxCell>
                <mxCell id="150" style="edgeStyle=none;html=1;entryX=0.5;entryY=0;entryDx=0;entryDy=0;fontSize=18;strokeColor=#000000;strokeWidth=1;" edge="1" parent="147" source="148" target="149">
                    <mxGeometry relative="1" as="geometry"/>
                </mxCell>
                <mxCell id="151" value="2" style="ellipse;whiteSpace=wrap;html=1;aspect=fixed;fontSize=18;fillColor=#008a00;fontColor=#ffffff;strokeColor=#005700;" vertex="1" parent="147">
                    <mxGeometry y="73" width="41" height="41" as="geometry"/>
                </mxCell>
                <mxCell id="152" style="edgeStyle=none;html=1;entryX=0.5;entryY=0;entryDx=0;entryDy=0;fontSize=18;strokeColor=#000000;strokeWidth=1;" edge="1" parent="147" source="148" target="151">
                    <mxGeometry relative="1" as="geometry"/>
                </mxCell>
                <mxCell id="98" value="" style="group;fillColor=none;" vertex="1" connectable="0" parent="1">
                    <mxGeometry x="1698" y="419" width="457" height="176" as="geometry"/>
                </mxCell>
                <mxCell id="64" value="" style="group" vertex="1" connectable="0" parent="98">
                    <mxGeometry x="386" y="-247" width="171" height="210" as="geometry"/>
                </mxCell>
                <mxCell id="65" value="2" style="ellipse;whiteSpace=wrap;html=1;aspect=fixed;fontSize=18;fillColor=#60a917;fontColor=#ffffff;strokeColor=#2D7600;" vertex="1" parent="64">
                    <mxGeometry x="41" width="41" height="41" as="geometry"/>
                </mxCell>
                <mxCell id="68" value="3" style="ellipse;whiteSpace=wrap;html=1;aspect=fixed;fontSize=18;fillColor=#a20025;fontColor=#ffffff;strokeColor=#6F0000;" vertex="1" parent="64">
                    <mxGeometry y="73" width="41" height="41" as="geometry"/>
                </mxCell>
                <mxCell id="69" style="edgeStyle=none;html=1;entryX=0.5;entryY=0;entryDx=0;entryDy=0;fontSize=18;strokeColor=#000000;strokeWidth=1;" edge="1" parent="64" source="65" target="68">
                    <mxGeometry relative="1" as="geometry"/>
                </mxCell>
                <mxCell id="155" value="" style="group" vertex="1" connectable="0" parent="98">
                    <mxGeometry x="-19" width="191" height="176" as="geometry"/>
                </mxCell>
                <mxCell id="92" value="23" style="ellipse;whiteSpace=wrap;html=1;aspect=fixed;fontSize=18;fillColor=#60a917;fontColor=#ffffff;strokeColor=#2D7600;" vertex="1" parent="155">
                    <mxGeometry x="150" y="64" width="41" height="41" as="geometry"/>
                </mxCell>
                <mxCell id="96" style="edgeStyle=none;html=1;fontSize=18;strokeColor=#000000;strokeWidth=1;" edge="1" parent="155" source="78" target="92">
                    <mxGeometry relative="1" as="geometry"/>
                </mxCell>
                <mxCell id="78" value="8" style="ellipse;whiteSpace=wrap;html=1;aspect=fixed;fontSize=18;fillColor=#60a917;fontColor=#ffffff;strokeColor=#2D7600;" vertex="1" parent="155">
                    <mxGeometry x="94" width="41" height="41" as="geometry"/>
                </mxCell>
                <mxCell id="141" value="" style="group" vertex="1" connectable="0" parent="155">
                    <mxGeometry y="62" width="123" height="114" as="geometry"/>
                </mxCell>
                <mxCell id="142" value="6" style="ellipse;whiteSpace=wrap;html=1;aspect=fixed;fontSize=18;fillColor=#60a917;fontColor=#ffffff;strokeColor=#2D7600;" vertex="1" parent="141">
                    <mxGeometry x="41" width="41" height="41" as="geometry"/>
                </mxCell>
                <mxCell id="143" value="5" style="ellipse;whiteSpace=wrap;html=1;aspect=fixed;fontSize=18;fillColor=#a20025;fontColor=#ffffff;strokeColor=#6F0000;" vertex="1" parent="141">
                    <mxGeometry x="82" y="73" width="41" height="41" as="geometry"/>
                </mxCell>
                <mxCell id="144" style="edgeStyle=none;html=1;entryX=0.5;entryY=0;entryDx=0;entryDy=0;fontSize=18;strokeColor=#000000;strokeWidth=1;" edge="1" parent="141" source="142" target="143">
                    <mxGeometry relative="1" as="geometry"/>
                </mxCell>
                <mxCell id="145" value="2" style="ellipse;whiteSpace=wrap;html=1;aspect=fixed;fontSize=18;fillColor=#008a00;fontColor=#ffffff;strokeColor=#005700;" vertex="1" parent="141">
                    <mxGeometry y="73" width="41" height="41" as="geometry"/>
                </mxCell>
                <mxCell id="146" style="edgeStyle=none;html=1;entryX=0.5;entryY=0;entryDx=0;entryDy=0;fontSize=18;strokeColor=#000000;strokeWidth=1;" edge="1" parent="141" source="142" target="145">
                    <mxGeometry relative="1" as="geometry"/>
                </mxCell>
                <mxCell id="154" style="edgeStyle=none;html=1;fontSize=18;fontColor=#000000;strokeColor=#000000;strokeWidth=1;" edge="1" parent="155" source="78" target="142">
                    <mxGeometry relative="1" as="geometry"/>
                </mxCell>
                <mxCell id="156" value="" style="group" vertex="1" connectable="0" parent="98">
                    <mxGeometry x="259" y="-3" width="191" height="176" as="geometry"/>
                </mxCell>
                <mxCell id="157" value="7" style="ellipse;whiteSpace=wrap;html=1;aspect=fixed;fontSize=18;fillColor=#a20025;fontColor=#ffffff;strokeColor=#6F0000;" vertex="1" parent="156">
                    <mxGeometry x="150" y="64" width="41" height="41" as="geometry"/>
                </mxCell>
                <mxCell id="158" style="edgeStyle=none;html=1;fontSize=18;strokeColor=#000000;strokeWidth=1;" edge="1" parent="156" source="159" target="157">
                    <mxGeometry relative="1" as="geometry"/>
                </mxCell>
                <mxCell id="159" value="8" style="ellipse;whiteSpace=wrap;html=1;aspect=fixed;fontSize=18;fillColor=#60a917;fontColor=#ffffff;strokeColor=#2D7600;" vertex="1" parent="156">
                    <mxGeometry x="94" width="41" height="41" as="geometry"/>
                </mxCell>
                <mxCell id="160" value="" style="group" vertex="1" connectable="0" parent="156">
                    <mxGeometry y="62" width="123" height="114" as="geometry"/>
                </mxCell>
                <mxCell id="161" value="6" style="ellipse;whiteSpace=wrap;html=1;aspect=fixed;fontSize=18;fillColor=#60a917;fontColor=#ffffff;strokeColor=#2D7600;" vertex="1" parent="160">
                    <mxGeometry x="41" width="41" height="41" as="geometry"/>
                </mxCell>
                <mxCell id="162" value="5" style="ellipse;whiteSpace=wrap;html=1;aspect=fixed;fontSize=18;fillColor=#008a00;fontColor=#ffffff;strokeColor=#005700;" vertex="1" parent="160">
                    <mxGeometry x="82" y="73" width="41" height="41" as="geometry"/>
                </mxCell>
                <mxCell id="163" style="edgeStyle=none;html=1;entryX=0.5;entryY=0;entryDx=0;entryDy=0;fontSize=18;strokeColor=#000000;strokeWidth=1;" edge="1" parent="160" source="161" target="162">
                    <mxGeometry relative="1" as="geometry"/>
                </mxCell>
                <mxCell id="164" value="9" style="ellipse;whiteSpace=wrap;html=1;aspect=fixed;fontSize=18;fillColor=#a20025;fontColor=#ffffff;strokeColor=#6F0000;" vertex="1" parent="160">
                    <mxGeometry y="73" width="41" height="41" as="geometry"/>
                </mxCell>
                <mxCell id="165" style="edgeStyle=none;html=1;entryX=0.5;entryY=0;entryDx=0;entryDy=0;fontSize=18;strokeColor=#000000;strokeWidth=1;" edge="1" parent="160" source="161" target="164">
                    <mxGeometry relative="1" as="geometry"/>
                </mxCell>
                <mxCell id="166" style="edgeStyle=none;html=1;fontSize=18;fontColor=#000000;strokeColor=#000000;strokeWidth=1;" edge="1" parent="156" source="159" target="161">
                    <mxGeometry relative="1" as="geometry"/>
                </mxCell>
                <mxCell id="113" value="&lt;b&gt;&lt;font color=&quot;#000000&quot;&gt;1)&lt;/font&gt;&lt;/b&gt;" style="text;html=1;strokeColor=none;fillColor=none;align=center;verticalAlign=middle;whiteSpace=wrap;rounded=0;fontSize=18;" vertex="1" parent="1">
                    <mxGeometry x="1668" y="164" width="60" height="30" as="geometry"/>
                </mxCell>
                <mxCell id="114" value="&lt;b&gt;&lt;font color=&quot;#000000&quot;&gt;2)&lt;/font&gt;&lt;/b&gt;" style="text;html=1;strokeColor=none;fillColor=none;align=center;verticalAlign=middle;whiteSpace=wrap;rounded=0;fontSize=18;" vertex="1" parent="1">
                    <mxGeometry x="1849" y="164" width="60" height="30" as="geometry"/>
                </mxCell>
                <mxCell id="115" value="&lt;b&gt;&lt;font color=&quot;#000000&quot;&gt;3)&lt;/font&gt;&lt;/b&gt;" style="text;html=1;strokeColor=none;fillColor=none;align=center;verticalAlign=middle;whiteSpace=wrap;rounded=0;fontSize=18;" vertex="1" parent="1">
                    <mxGeometry x="2031" y="164" width="60" height="30" as="geometry"/>
                </mxCell>
                <mxCell id="118" value="&lt;b&gt;&lt;font color=&quot;#000000&quot;&gt;6)&lt;/font&gt;&lt;/b&gt;" style="text;html=1;strokeColor=none;fillColor=none;align=center;verticalAlign=middle;whiteSpace=wrap;rounded=0;fontSize=18;" vertex="1" parent="1">
                    <mxGeometry x="1920" y="392" width="60" height="30" as="geometry"/>
                </mxCell>
                <mxCell id="117" value="&lt;b&gt;&lt;font color=&quot;#000000&quot;&gt;5)&lt;/font&gt;&lt;/b&gt;" style="text;html=1;strokeColor=none;fillColor=none;align=center;verticalAlign=middle;whiteSpace=wrap;rounded=0;fontSize=18;" vertex="1" parent="1">
                    <mxGeometry x="1668" y="400" width="60" height="30" as="geometry"/>
                </mxCell>
                <mxCell id="126" value="" style="sketch=0;html=1;aspect=fixed;strokeColor=none;shadow=0;align=center;verticalAlign=top;fillColor=#2D9C5E;shape=mxgraph.gcp2.check;fontSize=18;fontColor=#000000;opacity=50;" vertex="1" parent="1">
                    <mxGeometry x="2256" y="124" width="50" height="40" as="geometry"/>
                </mxCell>
                <mxCell id="127" value="" style="sketch=0;html=1;aspect=fixed;strokeColor=none;shadow=0;align=center;verticalAlign=top;fillColor=#2D9C5E;shape=mxgraph.gcp2.check;fontSize=18;fontColor=#000000;opacity=50;" vertex="1" parent="1">
                    <mxGeometry x="1928" y="723" width="50" height="40" as="geometry"/>
                </mxCell>
                <mxCell id="128" value="" style="sketch=0;html=1;aspect=fixed;strokeColor=none;shadow=0;align=center;verticalAlign=top;fillColor=#2D9C5E;shape=mxgraph.gcp2.check;fontSize=18;fontColor=#000000;opacity=50;" vertex="1" parent="1">
                    <mxGeometry x="2249" y="673" width="50" height="40" as="geometry"/>
                </mxCell>
                <mxCell id="129" value="" style="sketch=0;html=1;aspect=fixed;strokeColor=none;shadow=0;align=center;verticalAlign=top;fillColor=#2D9C5E;shape=mxgraph.gcp2.check;fontSize=18;fontColor=#000000;opacity=50;" vertex="1" parent="1">
                    <mxGeometry x="2112.5" y="685" width="50" height="40" as="geometry"/>
                </mxCell>
                <mxCell id="137" value="" style="shape=mxgraph.signs.safety.no;html=1;pointerEvents=1;fillColor=#FF0000;strokeColor=none;verticalLabelPosition=bottom;verticalAlign=top;align=center;sketch=0;fontSize=18;fontColor=#000000;gradientColor=none;" vertex="1" parent="1">
                    <mxGeometry x="1710" y="126" width="38" height="38" as="geometry"/>
                </mxCell>
                <mxCell id="138" value="" style="shape=mxgraph.signs.safety.no;html=1;pointerEvents=1;fillColor=#FF0000;strokeColor=none;verticalLabelPosition=bottom;verticalAlign=top;align=center;sketch=0;fontSize=18;fontColor=#000000;gradientColor=none;" vertex="1" parent="1">
                    <mxGeometry x="1890" y="126" width="38" height="38" as="geometry"/>
                </mxCell>
                <mxCell id="139" value="" style="shape=mxgraph.signs.safety.no;html=1;pointerEvents=1;fillColor=#FF0000;strokeColor=none;verticalLabelPosition=bottom;verticalAlign=top;align=center;sketch=0;fontSize=18;fontColor=#000000;gradientColor=none;" vertex="1" parent="1">
                    <mxGeometry x="2070" y="122" width="38" height="38" as="geometry"/>
                </mxCell>
                <mxCell id="167" value="" style="shape=mxgraph.signs.safety.no;html=1;pointerEvents=1;fillColor=#FF0000;strokeColor=none;verticalLabelPosition=bottom;verticalAlign=top;align=center;sketch=0;fontSize=18;fontColor=#000000;gradientColor=none;" vertex="1" parent="1">
                    <mxGeometry x="1725" y="367" width="38" height="38" as="geometry"/>
                </mxCell>
                <mxCell id="168" value="" style="shape=mxgraph.signs.safety.no;html=1;pointerEvents=1;fillColor=#FF0000;strokeColor=none;verticalLabelPosition=bottom;verticalAlign=top;align=center;sketch=0;fontSize=18;fontColor=#000000;gradientColor=none;" vertex="1" parent="1">
                    <mxGeometry x="1985" y="367" width="38" height="38" as="geometry"/>
                </mxCell>
            </root>
        </mxGraphModel>
    </diagram>
</mxfile>